<mxfile host="app.diagrams.net" agent="Mozilla/5.0 (Windows NT 10.0; Win64; x64) AppleWebKit/537.36 (KHTML, like Gecko) Chrome/131.0.0.0 Safari/537.36" version="25.0.3">
  <diagram name="Trang-1" id="F-VEq7WzbB2n33nm_vun">
    <mxGraphModel dx="1050" dy="557" grid="1" gridSize="10" guides="1" tooltips="1" connect="1" arrows="1" fold="1" page="1" pageScale="1" pageWidth="827" pageHeight="1169" math="0" shadow="0">
      <root>
        <mxCell id="0" />
        <mxCell id="1" parent="0" />
        <mxCell id="Voqb3TN_g0TU4WUhajrY-2" style="edgeStyle=orthogonalEdgeStyle;rounded=0;orthogonalLoop=1;jettySize=auto;html=1;" edge="1" parent="1" source="Voqb3TN_g0TU4WUhajrY-1">
          <mxGeometry relative="1" as="geometry">
            <mxPoint x="200" y="300" as="targetPoint" />
          </mxGeometry>
        </mxCell>
        <mxCell id="Voqb3TN_g0TU4WUhajrY-1" value="start&lt;div&gt;&lt;br&gt;&lt;/div&gt;" style="ellipse;whiteSpace=wrap;html=1;aspect=fixed;" vertex="1" parent="1">
          <mxGeometry x="50" y="260" width="80" height="80" as="geometry" />
        </mxCell>
        <mxCell id="Voqb3TN_g0TU4WUhajrY-4" style="edgeStyle=orthogonalEdgeStyle;rounded=0;orthogonalLoop=1;jettySize=auto;html=1;" edge="1" parent="1" source="Voqb3TN_g0TU4WUhajrY-3">
          <mxGeometry relative="1" as="geometry">
            <mxPoint x="320" y="300" as="targetPoint" />
          </mxGeometry>
        </mxCell>
        <mxCell id="Voqb3TN_g0TU4WUhajrY-3" value="input a" style="shape=parallelogram;perimeter=parallelogramPerimeter;whiteSpace=wrap;html=1;fixedSize=1;" vertex="1" parent="1">
          <mxGeometry x="190" y="270" width="70" height="60" as="geometry" />
        </mxCell>
        <mxCell id="Voqb3TN_g0TU4WUhajrY-8" style="edgeStyle=orthogonalEdgeStyle;rounded=0;orthogonalLoop=1;jettySize=auto;html=1;entryX=0;entryY=0.75;entryDx=0;entryDy=0;" edge="1" parent="1" source="Voqb3TN_g0TU4WUhajrY-5" target="Voqb3TN_g0TU4WUhajrY-7">
          <mxGeometry relative="1" as="geometry" />
        </mxCell>
        <mxCell id="Voqb3TN_g0TU4WUhajrY-9" style="edgeStyle=orthogonalEdgeStyle;rounded=0;orthogonalLoop=1;jettySize=auto;html=1;entryX=0;entryY=0.5;entryDx=0;entryDy=0;" edge="1" parent="1" source="Voqb3TN_g0TU4WUhajrY-5" target="Voqb3TN_g0TU4WUhajrY-6">
          <mxGeometry relative="1" as="geometry" />
        </mxCell>
        <mxCell id="Voqb3TN_g0TU4WUhajrY-5" value="a % 2 == 0" style="rhombus;whiteSpace=wrap;html=1;" vertex="1" parent="1">
          <mxGeometry x="320" y="260" width="80" height="80" as="geometry" />
        </mxCell>
        <mxCell id="Voqb3TN_g0TU4WUhajrY-13" style="edgeStyle=orthogonalEdgeStyle;rounded=0;orthogonalLoop=1;jettySize=auto;html=1;exitX=1;exitY=0.5;exitDx=0;exitDy=0;entryX=0.5;entryY=0;entryDx=0;entryDy=0;" edge="1" parent="1" source="Voqb3TN_g0TU4WUhajrY-6" target="Voqb3TN_g0TU4WUhajrY-12">
          <mxGeometry relative="1" as="geometry" />
        </mxCell>
        <mxCell id="Voqb3TN_g0TU4WUhajrY-6" value="printf(&quot;a la so chan&quot;)" style="rounded=1;whiteSpace=wrap;html=1;" vertex="1" parent="1">
          <mxGeometry x="460" y="140" width="120" height="60" as="geometry" />
        </mxCell>
        <mxCell id="Voqb3TN_g0TU4WUhajrY-14" style="edgeStyle=orthogonalEdgeStyle;rounded=0;orthogonalLoop=1;jettySize=auto;html=1;entryX=0.5;entryY=1;entryDx=0;entryDy=0;" edge="1" parent="1" source="Voqb3TN_g0TU4WUhajrY-7" target="Voqb3TN_g0TU4WUhajrY-12">
          <mxGeometry relative="1" as="geometry" />
        </mxCell>
        <mxCell id="Voqb3TN_g0TU4WUhajrY-7" value="printf(&quot;a la so le&quot;)" style="rounded=1;whiteSpace=wrap;html=1;" vertex="1" parent="1">
          <mxGeometry x="460" y="340" width="120" height="60" as="geometry" />
        </mxCell>
        <mxCell id="Voqb3TN_g0TU4WUhajrY-10" value="true" style="text;html=1;align=center;verticalAlign=middle;resizable=0;points=[];autosize=1;strokeColor=none;fillColor=none;" vertex="1" parent="1">
          <mxGeometry x="430" y="218" width="40" height="30" as="geometry" />
        </mxCell>
        <mxCell id="Voqb3TN_g0TU4WUhajrY-11" value="false" style="text;html=1;align=center;verticalAlign=middle;resizable=0;points=[];autosize=1;strokeColor=none;fillColor=none;" vertex="1" parent="1">
          <mxGeometry x="430" y="310" width="50" height="30" as="geometry" />
        </mxCell>
        <mxCell id="Voqb3TN_g0TU4WUhajrY-12" value="END" style="ellipse;whiteSpace=wrap;html=1;" vertex="1" parent="1">
          <mxGeometry x="660" y="250" width="120" height="80" as="geometry" />
        </mxCell>
      </root>
    </mxGraphModel>
  </diagram>
</mxfile>
